# xmcd
#
# Track frame offsets:
# 183
# 11930
# 24125
# 42603
# 66145
# 74813
# 86915
# 95895
# 108753
# 124735
# 135100
# 155775
# 172893
# 192663
# 204023
# 223448
# 234790
#
# Disc length: 3320 seconds
#
#
# Revision: 0
# Processed by: cddbd v1.5.2PL0 Copyright (c) Steve Scherf et al.
# Submitted via: FreeRIP 2.96 
#
DISCID=f50cf611
DTITLE=Various Artist - Blue Brazil - Blue Note In A Latin Groove
DYEAR=1994
DGENRE=Latin
TTITLE0=Upa Neguinho - Luiz Arruda Paez
TTITLE1=Catavento - Alaiede Costa
TTITLE2=Berimbau - Mandrake Som
TTITLE3=Vim De Santana - Quarteto Novo
TTITLE4=Deus Brasilero - Perry Ribiero, Bossa 3
TTITLE5=Primitivo - Milton Banana Trio
TTITLE6=Noa Noa - Milton Banana Trio
TTITLE7=Viola Fora De Moda - Edu Lobo
TTITLE8=Nao Me Diga Adeus - Bossa 3
TTITLE9=Batucada Sergiu - Marcos Valle
TTITLE10=Aldeia De Ogum - Joyce
TTITLE11=Tudo Que Voce Podia Ser - Lo Borges
TTITLE12=Homenagem A Mongo - Som Tres
TTITLE13=Deixa Isso Pra La - Elza Soares
TTITLE14=Misturada - Quarteto Novo
TTITLE15=Bebe - Eumir Deodato
TTITLE16=Um Tema P'ro Simon - Johnny Alf
EXTD=
EXTT0=
EXTT1=
EXTT2=
EXTT3=
EXTT4=
EXTT5=
EXTT6=
EXTT7=
EXTT8=
EXTT9=
EXTT10=
EXTT11=
EXTT12=
EXTT13=
EXTT14=
EXTT15=
EXTT16=
PLAYORDER=
